{"title":"Million Ways To Die In The West 2014 READNFO CAM XViD-BL4CKP34RL","uid":10308566,"size":1513495950,"categoryP":"video","categoryS":"movies","magnet":"?xt=urn:btih:8c201f10ea79646f9e499f86044a46c97c316eba&amp;dn=Million+Ways+To+Die+In+The+West+2014+READNFO+CAM+XViD-BL4CKP34RL&amp;tr=udp%3A%2F%2Ftracker.openbittorrent.com%3A80&amp;tr=udp%3A%2F%2Fopen.demonii.com%3A1337&amp;tr=udp%3A%2F%2Ftracker.coppersurfer.tk%3A6969&amp;tr=udp%3A%2F%2Fexodus.desync.com%3A6969","seeders":2,"leechers":0,"uploader":"Xetron","files":4,"time":1402160474,"description":"\n[IMG]http://i.imgur.com/2ypCvkB.png[/IMG]\n\n\n\n\n                    A Fine Release Brought to you from - BL4CKP34RL                  \n                                                 \n\n******************************************************************************************\n                  Million.Ways.To.Die.In.The.West.2014.CAM.XViD-BL4CKP34RL                   \n******************************************************************************************\n\nRipper ...........: J4CKSP4RR0W          IMDB Rating.......: 6.4/10                             \nVideo Codec.......: XViD                 Release Date......: 7 June 2014\nAudio Codec.......: mp3                  Theatre Date......: 30 May 2014  \nAudio Bitrate.....: 128 kbps             Runtime...........: 1hr 49min 14sec\nSubtitles.........: n/a                  Language..........: ENGLISH\nResolution........: 720x352              IMDb URL..........: http://www.imdb.com/title/tt2557490/\n\n\n[color=green]DETAILS:[/color]\n\n\nFormat                                   : AVI\nFormat/Info                              : Audio Video Interleave\nFile size                                : 1.37 GiB\nDuration                                 : 1h 49mn\nOverall bit rate                         : 1 797 Kbps\nWriting library                          : VirtualDub build 32839/release\n\nVideo\nID                                       : 0\nFormat                                   : MPEG-4 Visual\nFormat profile                           : Advanced Simple@L5\nFormat settings, BVOP                    : 2\nFormat settings, QPel                    : Yes\nFormat settings, GMC                     : No warppoints\nFormat settings, Matrix                  : Default (H.263)\nMuxing mode                              : Packed bitstream\nCodec ID                                 : XVID\nCodec ID/Hint                            : XviD\nDuration                                 : 1h 49mn\nBit rate                                 : 1 658 Kbps\nWidth                                    : 720 pixels\nHeight                                   : 352 pixels\nDisplay aspect ratio                     : 2.045\nFrame rate                               : 29.970 fps\nColor space                              : YUV\nChroma subsampling                       : 4:2:0\nBit depth                                : 8 bits\nScan type                                : Interlaced\nScan order                               : Bottom Field First\nCompression mode                         : Lossy\nBits/(Pixel*Frame)                       : 0.218\nStream size                              : 1.26 GiB (92%)\nWriting library                          : XviD 65\n\nAudio\nID                                       : 1\nFormat                                   : MPEG Audio\nFormat version                           : Version 1\nFormat profile                           : Layer 3\nMode                                     : Joint stereo\nMode extension                           : MS Stereo\nCodec ID                                 : 55\nCodec ID/Hint                            : MP3\nDuration                                 : 1h 49mn\nBit rate mode                            : Constant\nBit rate                                 : 128 Kbps\nChannel(s)                               : 2 channels\nSampling rate                            : 48.0 KHz\nCompression mode                         : Lossy\nStream size                              : 100 MiB (7%)\nAlignment                                : Split accross interleaves\nInterleave, duration                     : 33 ms (1.00 video frame)\n\n\n\n\n\n\n\n[color=red]SOURCES:[/color]\n\n\n\nVIDEO: ............. mi amigo ...thanks  \nAUDIO: ............. mi amigo  ...thanks \n\n[color=yellow]NOTES:[/color]\n\nTHIS HAS NO SITE WATERMARK LIKE THE TiTAN RELEASE. BUT DOES HAVE HC SPANISH SUBS\n\n\nTook the decent sors we got passed 4 days ago and waited for others to drop a WATERMARKED vid. \ngave it slight rotate, denoise, adjsuted brightness sum as made dark scenes a lil brighter but dropped\nthe daytime brightness sum slight rgb, saturation adjsutment and sharpened it back up a lil bit\nthen cleaned and remuxed the audio.. IT IS STILL A LIL DARK IN NITE SCENES SO UU HAVE BEEN WARNED.\n\n\n\nAnd on a completely different side note..  this NFO makes us laugh and cry for users at same time.. http://paste2.org/tVnJUdHh\ndo you think your the only ones with LiNE for X-MEN and if we wanted ur shit we would have\nit plain and simple u guys all use the saame bs source code for your tracker that has all the TBDEV exploits so we could \nget it and u wouldnt even know it..  now for the makes us cry part.. HOME DOWNLOAD ONLY, NO SEEDBOXES/SERVERS ALLOWED\nreally on a site of a guy that was busted at a theater with a CAM and audio gear and is now walkin free.. sounds like FED \nhoneypot for pirates IP's to us all..\n\nNow for TiTAN.. glad u got STAFF on your site who is openly saying he will leak stuff... http://gyazo.com/5d5dde5b79e3ae66741b9ddc48df17fd\n\nget over yourselves guys ur not that good and well ur sites are a joke and so are you..lol \n\nBTW CHECK RUNTIME OF YOUR BELOVED X-Men R6 CUT THE 7 SEC OF BS OFF BEGINNING AND MATCH UP TO OUR VID WHERE CREDITS ROLL UR MISSIN 2 MIN.. \n\n\n\n[color=green]SCREENS:[/color]\n\n\n[IMG]http://i.imgur.com/yYrsHuW.jpg[/IMG]\n[IMG]http://i.imgur.com/xCtTqrl.jpg[/IMG]\n[IMG]http://i.imgur.com/KjU37MA.jpg[/IMG]\n[IMG]http://i.imgur.com/QUvbVX0.jpg[/IMG]\n[IMG]http://i.imgur.com/VuciUvi.jpg[/IMG]\n[IMG]http://i.imgur.com/vihuavf.jpg[/IMG]\n\n\n\n\n[color=yellow]GREETS:[/color]\n\n\nTo those that deserve it.. You know who you are \n\n\n[COLOR=RED]Looking for not a damn thing[/COLOR]\n\n","torrent":{"xt":"urn:btih:8c201f10ea79646f9e499f86044a46c97c316eba","amp;dn":"Million+Ways+To+Die+In+The+West+2014+READNFO+CAM+XViD-BL4CKP34RL","amp;tr":["udp%3A%2F%2Ftracker.openbittorrent.com%3A80","udp%3A%2F%2Fopen.demonii.com%3A1337","udp%3A%2F%2Ftracker.coppersurfer.tk%3A6969","udp%3A%2F%2Fexodus.desync.com%3A6969"],"infoHash":"8c201f10ea79646f9e499f86044a46c97c316eba","infoHashBuffer":{"type":"Buffer","data":[140,32,31,16,234,121,100,111,158,73,159,134,4,74,70,201,124,49,110,186]},"announce":[],"urlList":[]}}